# Synthetic factory: millimetres, Y up. Background only; register walls separately.
o back-wall
v 0 0 0
v 12000 0 0
v 12000 4000 0
v 0 4000 0
v 0 0 200
v 12000 0 200
v 12000 4000 200
v 0 4000 200
f 1 4 3 2
f 5 6 7 8
f 1 2 6 5
f 2 3 7 6
f 3 4 8 7
f 4 1 5 8
o left-wall
v 0 0 200
v 200 0 200
v 200 4000 200
v 0 4000 200
v 0 0 9000
v 200 0 9000
v 200 4000 9000
v 0 4000 9000
f 9 12 11 10
f 13 14 15 16
f 9 10 14 13
f 10 11 15 14
f 11 12 16 15
f 12 9 13 16
o right-wall
v 11800 0 200
v 12000 0 200
v 12000 4000 200
v 11800 4000 200
v 11800 0 9000
v 12000 0 9000
v 12000 4000 9000
v 11800 4000 9000
f 17 20 19 18
f 21 22 23 24
f 17 18 22 21
f 18 19 23 22
f 19 20 24 23
f 20 17 21 24
o column-a
v 3000 0 4200
v 3500 0 4200
v 3500 4000 4200
v 3000 4000 4200
v 3000 0 4700
v 3500 0 4700
v 3500 4000 4700
v 3000 4000 4700
f 25 28 27 26
f 29 30 31 32
f 25 26 30 29
f 26 27 31 30
f 27 28 32 31
f 28 25 29 32
o column-b
v 8500 0 4200
v 9000 0 4200
v 9000 4000 4200
v 8500 4000 4200
v 8500 0 4700
v 9000 0 4700
v 9000 4000 4700
v 8500 4000 4700
f 33 36 35 34
f 37 38 39 40
f 33 34 38 37
f 34 35 39 38
f 35 36 40 39
f 36 33 37 40
